<svg width="20" height="21" viewBox="0 0 20 21" fill="none" xmlns="http://www.w3.org/2000/svg">
<path d="M18.05 1.06106C18.3427 1.06106 18.5907 1.16273 18.794 1.36606C18.9973 1.56939 19.099 1.81739 19.099 2.11006V18.7471C19.099 19.0397 18.9973 19.2877 18.794 19.4911C18.5907 19.6944 18.3427 19.7961 18.05 19.7961H13.318V12.5751H15.733L16.075 9.72106H13.318V7.89106C13.318 7.45173 13.4157 7.11839 13.611 6.89106C13.8063 6.66372 14.164 6.54973 14.684 6.54906H16.172V4.01206C15.5213 3.94673 14.7977 3.91406 14.001 3.91406C12.9117 3.91406 12.0333 4.23539 11.366 4.87806C10.6987 5.52073 10.3653 6.42739 10.366 7.59806V9.72006H7.95101V12.5741H10.366V19.7951H1.41301C1.12035 19.7951 0.872347 19.6934 0.669014 19.4901C0.46568 19.2867 0.364014 19.0387 0.364014 18.7461V2.10906C0.364014 1.81639 0.46568 1.56839 0.669014 1.36506C0.872347 1.16173 1.12035 1.06006 1.41301 1.06006L18.05 1.06106Z" fill="white"/>
</svg>
