<svg width="20" height="21" viewBox="0 0 20 21" fill="none" xmlns="http://www.w3.org/2000/svg">
<g clip-path="url(#clip0_533_1413)">
<path d="M10 2.18359C12.6289 2.18359 12.9375 2.19531 13.9766 2.24219C14.9375 2.28516 15.457 2.44531 15.8047 2.58203C16.2656 2.76172 16.5938 2.97266 16.9375 3.31641C17.2812 3.66016 17.4961 3.98828 17.6719 4.44922C17.8047 4.79688 17.9688 5.31641 18.0117 6.27734C18.0586 7.31641 18.0703 7.625 18.0703 10.2539C18.0703 12.8828 18.0586 13.1914 18.0117 14.2305C17.9688 15.1914 17.8086 15.7109 17.6719 16.0586C17.4922 16.5195 17.2812 16.8477 16.9375 17.1914C16.5938 17.5352 16.2656 17.75 15.8047 17.9258C15.457 18.0586 14.9375 18.2227 13.9766 18.2656C12.9375 18.3125 12.6289 18.3242 10 18.3242C7.37109 18.3242 7.0625 18.3125 6.02344 18.2656C5.0625 18.2227 4.54297 18.0625 4.19531 17.9258C3.73438 17.7461 3.40625 17.5352 3.0625 17.1914C2.71875 16.8477 2.50391 16.5195 2.32812 16.0586C2.19531 15.7109 2.03125 15.1914 1.98828 14.2305C1.94141 13.1914 1.92969 12.8828 1.92969 10.2539C1.92969 7.625 1.94141 7.31641 1.98828 6.27734C2.03125 5.31641 2.19141 4.79688 2.32812 4.44922C2.50781 3.98828 2.71875 3.66016 3.0625 3.31641C3.40625 2.97266 3.73438 2.75781 4.19531 2.58203C4.54297 2.44922 5.0625 2.28516 6.02344 2.24219C7.0625 2.19141 7.37109 2.18359 10 2.18359ZM10 0.410156C7.32812 0.410156 6.99219 0.421875 5.94141 0.46875C4.89453 0.515625 4.17969 0.683594 3.55469 0.925781C2.90625 1.17578 2.35938 1.51563 1.8125 2.0625C1.26563 2.60938 0.929687 3.16016 0.675781 3.80469C0.433594 4.42969 0.265625 5.14453 0.21875 6.19531C0.171875 7.24219 0.160156 7.57812 0.160156 10.25C0.160156 12.9219 0.171875 13.2578 0.21875 14.3086C0.265625 15.3555 0.433594 16.0703 0.675781 16.6992C0.925781 17.3477 1.26563 17.8945 1.8125 18.4414C2.35938 18.9883 2.91016 19.3242 3.55469 19.5781C4.17969 19.8203 4.89453 19.9883 5.94531 20.0352C6.99609 20.082 7.32812 20.0938 10.0039 20.0938C12.6797 20.0938 13.0117 20.082 14.0625 20.0352C15.1094 19.9883 15.8242 19.8203 16.4531 19.5781C17.1016 19.3281 17.6484 18.9883 18.1953 18.4414C18.7422 17.8945 19.0781 17.3438 19.332 16.6992C19.5742 16.0742 19.7422 15.3594 19.7891 14.3086C19.8359 13.2578 19.8477 12.9258 19.8477 10.25C19.8477 7.57422 19.8359 7.24219 19.7891 6.19141C19.7422 5.14453 19.5742 4.42969 19.332 3.80078C19.082 3.15234 18.7422 2.60547 18.1953 2.05859C17.6484 1.51172 17.0977 1.17578 16.4531 0.921875C15.8281 0.679688 15.1133 0.511719 14.0625 0.464844C13.0078 0.421875 12.6719 0.410156 10 0.410156Z" fill="white"/>
<path d="M10 5.19531C7.21094 5.19531 4.94531 7.45703 4.94531 10.25C4.94531 13.043 7.21094 15.3047 10 15.3047C12.7891 15.3047 15.0547 13.0391 15.0547 10.25C15.0547 7.46094 12.7891 5.19531 10 5.19531ZM10 13.5312C8.1875 13.5312 6.71875 12.0625 6.71875 10.25C6.71875 8.4375 8.1875 6.96875 10 6.96875C11.8125 6.96875 13.2812 8.4375 13.2812 10.25C13.2812 12.0625 11.8125 13.5312 10 13.5312Z" fill="white"/>
<path d="M15.2539 6.17578C15.9054 6.17578 16.4336 5.64762 16.4336 4.99609C16.4336 4.34457 15.9054 3.81641 15.2539 3.81641C14.6024 3.81641 14.0742 4.34457 14.0742 4.99609C14.0742 5.64762 14.6024 6.17578 15.2539 6.17578Z" fill="white"/>
</g>
<defs>
<clipPath id="clip0_533_1413">
<rect width="20" height="20" fill="white" transform="translate(0 0.25)"/>
</clipPath>
</defs>
</svg>
